<?xml version="1.0" encoding="UTF-8" standalone="no"?><!DOCTYPE svg PUBLIC "-//W3C//DTD SVG 1.1//EN" "http://www.w3.org/Graphics/SVG/1.1/DTD/svg11.dtd"><svg width="100%" height="100%" viewBox="0 0 33 32" version="1.1" xmlns="http://www.w3.org/2000/svg" xmlns:xlink="http://www.w3.org/1999/xlink" xml:space="preserve" xmlns:serif="http://www.serif.com/" style="fill-rule:evenodd;clip-rule:evenodd;stroke-linejoin:round;stroke-miterlimit:2;"><circle cx="16.18" cy="15.647" r="15.624" style="fill:#ffa0a0;"/><g><path d="M6.301,22.401c0.013,0.048 0.023,0.098 0.031,0.148c0.108,0.696 -0.247,1.331 -0.792,1.416c-0.337,0.053 -1.014,-0.08 -1.205,-1.125c-0.037,-0.205 -0.04,-0.747 -0.049,-0.858c-0.044,-0.546 -0.128,-1.102 -0.159,-1.655c-0.016,-0.293 -0.019,-0.585 -0.001,-0.876c0.084,-1.372 0.128,-2.756 0.155,-4.144c0.042,-2.11 0.042,-4.228 0.072,-6.328c0.01,-0.699 0.469,-1.214 1.024,-1.15c0.555,0.064 0.998,0.683 0.988,1.382c-0.03,2.105 -0.031,4.229 -0.072,6.344c-0.028,1.431 -0.075,2.859 -0.161,4.274l0.155,2.081c0.005,0.054 0.011,0.334 0.014,0.491Z" style="fill:#fff;stroke:#fff;stroke-width:0.7px;"/><path d="M25.993,9.102l0.101,5.485l0.064,3.526l0.056,4.526c-0.004,0.765 0.444,1.352 1,1.31c0.555,-0.042 1.009,-0.697 1.012,-1.462l-0.055,-4.546l-0.065,-3.586l-0.101,-5.363c0.012,-0.766 -0.43,-1.363 -0.985,-1.333c-0.555,0.031 -1.015,0.677 -1.027,1.443Z" style="fill:#fff;stroke:#fff;stroke-width:0.7px;"/><path d="M5.72,18.866c0.72,-0.028 1.439,-0.195 2.156,-0.441c1.449,-0.499 2.887,-1.343 4.294,-1.833l6.626,-2.664l3.024,-0.888l5.392,-2.664c0.559,-0.263 0.842,-1.067 0.63,-1.794c-0.212,-0.726 -0.837,-1.103 -1.397,-0.84l-5.396,2.666l-2.803,0.801l-6.667,2.678c-1.405,0.489 -2.84,1.333 -4.288,1.83c-0.555,0.191 -1.111,0.328 -1.669,0.35c-0.597,0.024 -1.06,0.67 -1.033,1.443c0.027,0.773 0.534,1.38 1.131,1.356Z" style="fill:#fff;stroke:#fff;stroke-width:0.7px;"/><path d="M6.006,7.862l0.372,0.086l1.369,0.378l3.348,1.374l3.5,1.813c1.383,0.52 2.796,0.873 4.186,1.339c0.63,0.212 1.256,0.446 1.873,0.725c1.356,0.611 2.688,1.298 4.039,1.875c0.867,0.37 1.742,0.694 2.637,0.915c0.616,0.152 1.005,0.867 0.869,1.596c-0.136,0.728 -0.747,1.196 -1.363,1.044c-0.999,-0.247 -1.975,-0.605 -2.942,-1.018c-1.364,-0.582 -2.71,-1.274 -4.078,-1.891c-0.554,-0.251 -1.118,-0.46 -1.685,-0.651c-1.412,-0.474 -2.848,-0.835 -4.252,-1.363l-3.579,-1.844l-3.248,-1.335c0,-0 -1.336,-0.366 -1.336,-0.366c0.005,0.002 0.091,0.027 0.091,0.027c0,-0 -0.219,-0.045 -0.288,-0.062c-0.909,-0.218 -0.935,-1.343 -0.931,-1.404c0.041,-0.743 0.586,-1.314 1.215,-1.273c0.07,0.004 0.138,0.016 0.203,0.035Z" style="fill:#fff;stroke:#fff;stroke-width:0.7px;"/></g></svg>