<?xml version="1.0" encoding="UTF-8" standalone="no"?><!DOCTYPE svg PUBLIC "-//W3C//DTD SVG 1.1//EN" "http://www.w3.org/Graphics/SVG/1.1/DTD/svg11.dtd"><svg width="100%" height="100%" viewBox="0 0 108 108" version="1.1" xmlns="http://www.w3.org/2000/svg" xmlns:xlink="http://www.w3.org/1999/xlink" xml:space="preserve" xmlns:serif="http://www.serif.com/" style="fill-rule:evenodd;clip-rule:evenodd;stroke-linejoin:round;stroke-miterlimit:2;"><path d="M53.491,11.964c29.057,0 52.739,23.116 53.529,51.887c0.008,0.389 -0.14,0.766 -0.413,1.045c-0.272,0.278 -0.646,0.435 -1.036,0.435c-3.129,0.003 -10.46,0.003 -14.04,0.003c-0.47,-0 -0.91,0.227 -1.183,0.61c-0.272,0.383 -0.342,0.873 -0.188,1.317c1.503,4.331 5.136,14.794 6.639,19.126c0.154,0.443 0.084,0.934 -0.188,1.317c-0.273,0.382 -0.713,0.61 -1.183,0.61c-11.886,-0 -72.085,-0 -83.9,-0c-0.467,-0 -0.905,-0.225 -1.177,-0.603c-0.273,-0.379 -0.347,-0.865 -0.2,-1.308c1.444,-4.326 4.949,-14.832 6.393,-19.159c0.147,-0.442 0.073,-0.929 -0.199,-1.307c-0.273,-0.379 -0.711,-0.603 -1.178,-0.603c-3.511,-0 -10.671,-0 -13.756,-0c-0.391,-0 -0.765,-0.157 -1.038,-0.436c-0.273,-0.28 -0.422,-0.657 -0.413,-1.047c0.789,-28.851 24.473,-51.887 53.531,-51.887Z" style="fill:#ffa0a0;"/><path d="M8.16,48.703c3.099,2.103 7.276,3.711 11.582,4.57c4.367,0.871 8.862,0.967 12.49,0.093c1.2,-0.289 2.355,-0.743 3.483,-1.28c1.537,-0.731 3.024,-1.62 4.526,-2.392c0.797,-0.411 1.111,-1.391 0.701,-2.189c-0.411,-0.797 -1.391,-1.112 -2.189,-0.701c-1.471,0.757 -2.928,1.63 -4.435,2.347c-0.923,0.439 -1.865,0.819 -2.847,1.055c-3.222,0.777 -7.214,0.653 -11.094,-0.121c-3.86,-0.769 -7.614,-2.186 -10.392,-4.071c-0.742,-0.504 -1.754,-0.31 -2.257,0.432c-0.504,0.742 -0.31,1.754 0.432,2.257Z" style="fill:#fff;"/><path d="M19.425,55.61c-0.082,0.821 -0.775,1.462 -1.616,1.462c-0.897,-0 -1.625,-0.728 -1.625,-1.625c-0,-0.34 0.074,-0.693 0.221,-1.049c0.173,-0.418 0.62,-0.835 0.702,-1.259c0.168,-0.881 1.021,-1.459 1.901,-1.29c0.881,0.169 1.459,1.021 1.29,1.902c-0.107,0.56 -0.759,1.669 -0.873,1.859Z" style="fill:#fff;"/><path d="M23.811,55.13l0.333,1.9c0,0.897 0.728,1.625 1.625,1.625c0.897,-0 1.625,-0.728 1.625,-1.625l-0.377,-2.435c-0.147,-0.884 -0.985,-1.483 -1.87,-1.335c-0.885,0.147 -1.483,0.985 -1.336,1.87Z" style="fill:#fff;"/><path d="M30.305,54.057c0,0.3 0.055,0.628 0.163,0.967c0.181,0.566 0.613,1.21 0.754,1.709c0.243,0.863 1.142,1.366 2.005,1.123c0.863,-0.244 1.366,-1.142 1.123,-2.005l-0.795,-1.794c0,-0.897 -0.728,-1.625 -1.625,-1.625c-0.897,-0 -1.625,0.728 -1.625,1.625Z" style="fill:#fff;"/><path d="M12.929,51.127c-0.505,0.625 -1.113,1.309 -1.565,2.03c-0.256,0.409 -0.466,0.83 -0.609,1.259c-0.284,0.85 0.177,1.772 1.027,2.056c0.851,0.284 1.772,-0.177 2.056,-1.027c0.09,-0.27 0.249,-0.528 0.425,-0.781c0.368,-0.53 0.818,-1.029 1.194,-1.496c0.564,-0.698 0.455,-1.722 -0.243,-2.285c-0.698,-0.563 -1.722,-0.454 -2.285,0.244Z" style="fill:#fff;"/><path d="M99.523,50.561c-0.141,-1.316 -0.238,-2.361 -0.712,-3.285c-0.461,-0.899 -1.239,-1.737 -2.801,-2.507c-1.964,-0.967 -4.054,-1.325 -6.088,-1.323c-3.366,0.001 -6.561,1.004 -8.596,1.607c-0.571,0.169 -1.63,0.524 -2.587,0.886c-0.733,0.277 -1.408,0.562 -1.802,0.776l-3.102,1.923l-2.163,2.031c-0.694,0.568 -0.796,1.592 -0.228,2.286c0.568,0.694 1.593,0.796 2.287,0.228l1.999,-1.905l2.755,-1.706l3.765,-1.403c1.818,-0.539 4.666,-1.472 7.674,-1.473c1.552,-0.001 3.151,0.251 4.65,0.989c0.715,0.352 1.134,0.662 1.345,1.074c0.307,0.599 0.281,1.294 0.372,2.149c0.096,0.891 0.897,1.538 1.789,1.442c0.892,-0.095 1.538,-0.897 1.443,-1.789Z" style="fill:#fff;"/><path d="M40.453,83.77c0.008,0.054 0.013,0.109 0.014,0.166c0.019,0.775 -0.596,1.42 -1.372,1.439c-0.479,0.011 -1.398,-0.227 -1.467,-1.396c-0.014,-0.228 0.084,-0.822 0.093,-0.943c0.042,-0.603 0.03,-1.222 0.092,-1.831c0.033,-0.322 0.084,-0.642 0.163,-0.957c0.376,-1.489 0.7,-2.995 1,-4.508c0.456,-2.3 0.857,-4.615 1.295,-6.906c0.146,-0.762 0.884,-1.262 1.646,-1.116c0.762,0.146 1.262,0.883 1.116,1.645c-0.44,2.296 -0.842,4.617 -1.299,6.924c-0.31,1.56 -0.644,3.114 -1.032,4.649l-0.176,2.295c-0.004,0.059 -0.048,0.367 -0.073,0.539Z" style="fill:#fff;"/><path d="M65.64,69.567l1.092,5.465l0.7,3.514l0.862,4.514c0.128,0.765 0.853,1.282 1.618,1.155c0.765,-0.128 1.283,-0.854 1.155,-1.619l-0.865,-4.534l-0.711,-3.573l-1.071,-5.344c-0.117,-0.768 -0.834,-1.296 -1.601,-1.179c-0.767,0.116 -1.295,0.834 -1.179,1.601Z" style="fill:#fff;"/><path d="M39.03,78.087c0.935,0 1.876,-0.138 2.816,-0.357c1.903,-0.441 3.806,-1.231 5.652,-1.665l8.714,-2.406l3.962,-0.77l7.114,-2.455c0.738,-0.241 1.14,-1.036 0.899,-1.773c-0.242,-0.738 -1.036,-1.14 -1.774,-0.899l-7.119,2.457l-3.671,0.691l-8.768,2.418c-1.844,0.434 -3.745,1.223 -5.644,1.664c-0.729,0.169 -1.457,0.284 -2.181,0.284c-0.776,-0 -1.405,0.629 -1.405,1.405c-0,0.776 0.629,1.406 1.405,1.406Z" style="fill:#fff;"/><path d="M41.903,67.716l0.463,0.065l1.708,0.301l4.207,1.207l4.423,1.653c1.734,0.449 3.495,0.722 5.233,1.115c0.789,0.179 1.574,0.38 2.351,0.629c1.707,0.546 3.391,1.172 5.09,1.682c1.09,0.327 2.186,0.606 3.301,0.776c0.767,0.118 1.294,0.835 1.177,1.602c-0.117,0.767 -0.835,1.295 -1.602,1.177c-1.244,-0.19 -2.468,-0.498 -3.684,-0.863c-1.716,-0.514 -3.416,-1.145 -5.139,-1.696c-0.698,-0.224 -1.404,-0.404 -2.114,-0.564c-1.766,-0.4 -3.555,-0.68 -5.317,-1.136l-4.522,-1.68l-4.081,-1.173c0,-0 -1.666,-0.291 -1.666,-0.291c0.007,0.001 0.114,0.021 0.114,0.021c-0,0 -0.273,-0.032 -0.359,-0.044c-1.132,-0.167 -1.24,-1.335 -1.24,-1.399c0,-0.776 0.63,-1.406 1.406,-1.406c0.086,0 0.17,0.008 0.251,0.024Z" style="fill:#fff;"/><path d="M59.234,27.86c0.418,0.092 0.799,0.349 1.038,0.745c0.463,0.768 0.216,1.768 -0.552,2.231l-1.828,2.189c-1.744,1.596 -3.887,2.146 -5.746,1.744c-1.922,-0.415 -3.621,-1.822 -4.323,-4.345c-0.188,-0.676 -0.344,-1.433 -0.381,-2.181c-0.028,-0.583 0.015,-1.161 0.152,-1.704c0.917,-3.651 4.443,-4.83 7.365,-3.953c1.844,0.553 3.452,1.892 3.961,3.888c0.164,0.42 0.272,0.882 0.314,1.386Z" style="fill:#fff;"/><path d="M99.055,52.507c-0.515,1.698 -1.904,2.811 -3.455,3.191c-2.057,0.504 -4.379,-0.28 -5.386,-2.633c-1.385,-3.238 0.207,-5.456 2.378,-6.434c2.55,-1.148 5.847,-0.274 6.595,2.372c0.374,1.322 0.272,2.513 -0.132,3.504Z" style="fill:#fff;"/><path d="M35.778,29.94l0.056,-0.871c0.041,-0.53 0.251,-0.832 0.282,-0.878l1.655,-2.149c0.364,-0.673 1.281,-1.551 2.477,-2.377c2.062,-1.424 4.949,-2.848 5.891,-3.189c1.144,-0.414 2.356,-0.78 3.565,-1.046c1.304,-0.287 2.606,-0.458 3.822,-0.458c3.596,0 7.005,0.771 9.973,2.042c3.503,1.501 6.389,3.702 8.276,6.147c0.548,0.71 0.416,1.731 -0.294,2.279c-0.71,0.548 -1.731,0.417 -2.279,-0.293c-1.587,-2.057 -4.036,-3.883 -6.983,-5.145c-2.587,-1.108 -5.558,-1.78 -8.693,-1.78c-0.994,0 -2.057,0.147 -3.123,0.382c-1.071,0.235 -2.144,0.561 -3.157,0.928c-0.723,0.262 -2.747,1.265 -4.455,2.348c-0.976,0.618 -1.886,1.198 -2.161,1.708l-1.578,2.097c-0.013,0.216 -0.029,0.471 -0.04,0.584c-0.131,1.388 -1.521,1.572 -1.634,1.572c-0.897,0 -1.625,-0.728 -1.625,-1.625c-0,-0.094 0.008,-0.186 0.025,-0.276Z" style="fill:#fff;"/><path d="M36.998,30.663c0.488,0.801 1.351,1.652 2.33,2.407c1.462,1.128 3.166,2.06 3.884,2.372c1.825,0.792 3.833,1.585 5.814,2.143c1.46,0.41 2.906,0.693 4.263,0.771c1.347,0.077 3.205,-0.087 5,-0.423c1.936,-0.362 3.794,-0.934 4.909,-1.567c2.014,-1.142 3.61,-1.754 5.3,-3.194c1.233,-1.05 2.52,-2.526 4.016,-4.956c0.47,-0.764 0.231,-1.766 -0.532,-2.236c-0.764,-0.47 -1.766,-0.231 -2.236,0.532c-1.258,2.044 -2.318,3.303 -3.355,4.186c-1.523,1.297 -2.982,1.812 -4.797,2.842c-0.883,0.501 -2.369,0.912 -3.903,1.199c-1.514,0.283 -3.08,0.437 -4.217,0.372c-1.136,-0.065 -2.345,-0.311 -3.567,-0.655c-1.841,-0.518 -3.705,-1.259 -5.4,-1.995c-0.511,-0.222 -1.62,-0.833 -2.689,-1.591c-0.824,-0.585 -1.645,-1.242 -2.044,-1.897c-0.467,-0.766 -1.467,-1.01 -2.233,-0.543c-0.766,0.466 -1.01,1.467 -0.543,2.233Z" style="fill:#fff;"/><path d="M8.16,48.703c3.099,2.103 7.276,3.711 11.582,4.57c4.367,0.871 8.862,0.967 12.49,0.093c1.2,-0.289 2.355,-0.743 3.483,-1.28c1.537,-0.731 3.024,-1.62 4.526,-2.392c0.797,-0.411 1.111,-1.391 0.701,-2.189c-0.411,-0.797 -1.391,-1.112 -2.189,-0.701c-1.471,0.757 -2.928,1.63 -4.435,2.347c-0.923,0.439 -1.865,0.819 -2.847,1.055c-3.222,0.777 -7.214,0.653 -11.094,-0.121c-3.86,-0.769 -7.614,-2.186 -10.392,-4.071c-0.742,-0.504 -1.754,-0.31 -2.257,0.432c-0.504,0.742 -0.31,1.754 0.432,2.257Z" style="fill:#fff;"/><path d="M19.425,55.61c-0.082,0.821 -0.775,1.462 -1.616,1.462c-0.897,-0 -1.625,-0.728 -1.625,-1.625c-0,-0.34 0.074,-0.693 0.221,-1.049c0.173,-0.418 0.62,-0.835 0.702,-1.259c0.168,-0.881 1.021,-1.459 1.901,-1.29c0.881,0.169 1.459,1.021 1.29,1.902c-0.107,0.56 -0.759,1.669 -0.873,1.859Z" style="fill:#fff;"/><path d="M23.811,55.13l0.333,1.9c0,0.897 0.728,1.625 1.625,1.625c0.897,-0 1.625,-0.728 1.625,-1.625l-0.377,-2.435c-0.147,-0.884 -0.985,-1.483 -1.87,-1.335c-0.885,0.147 -1.483,0.985 -1.336,1.87Z" style="fill:#fff;"/><path d="M30.305,54.057c0,0.3 0.055,0.628 0.163,0.967c0.181,0.566 0.613,1.21 0.754,1.709c0.243,0.863 1.142,1.366 2.005,1.123c0.863,-0.244 1.366,-1.142 1.123,-2.005l-0.795,-1.794c0,-0.897 -0.728,-1.625 -1.625,-1.625c-0.897,-0 -1.625,0.728 -1.625,1.625Z" style="fill:#fff;"/><path d="M12.929,51.127c-0.505,0.625 -1.113,1.309 -1.565,2.03c-0.256,0.409 -0.466,0.83 -0.609,1.259c-0.284,0.85 0.177,1.772 1.027,2.056c0.851,0.284 1.772,-0.177 2.056,-1.027c0.09,-0.27 0.249,-0.528 0.425,-0.781c0.368,-0.53 0.818,-1.029 1.194,-1.496c0.564,-0.698 0.455,-1.722 -0.243,-2.285c-0.698,-0.563 -1.722,-0.454 -2.285,0.244Z" style="fill:#fff;"/><path d="M99.523,50.561c-0.141,-1.316 -0.238,-2.361 -0.712,-3.285c-0.461,-0.899 -1.239,-1.737 -2.801,-2.507c-1.964,-0.967 -4.054,-1.325 -6.088,-1.323c-3.366,0.001 -6.561,1.004 -8.596,1.607c-0.571,0.169 -1.63,0.524 -2.587,0.886c-0.733,0.277 -1.408,0.562 -1.802,0.776l-3.102,1.923l-2.163,2.031c-0.694,0.568 -0.796,1.592 -0.228,2.286c0.568,0.694 1.593,0.796 2.287,0.228l1.999,-1.905l2.755,-1.706l3.765,-1.403c1.818,-0.539 4.666,-1.472 7.674,-1.473c1.552,-0.001 3.151,0.251 4.65,0.989c0.715,0.352 1.134,0.662 1.345,1.074c0.307,0.599 0.281,1.294 0.372,2.149c0.096,0.891 0.897,1.538 1.789,1.442c0.892,-0.095 1.538,-0.897 1.443,-1.789Z" style="fill:#fff;"/><path d="M40.453,83.77c0.008,0.054 0.013,0.109 0.014,0.166c0.019,0.775 -0.596,1.42 -1.372,1.439c-0.479,0.011 -1.398,-0.227 -1.467,-1.396c-0.014,-0.228 0.084,-0.822 0.093,-0.943c0.042,-0.603 0.03,-1.222 0.092,-1.831c0.033,-0.322 0.084,-0.642 0.163,-0.957c0.376,-1.489 0.7,-2.995 1,-4.508c0.456,-2.3 0.857,-4.615 1.295,-6.906c0.146,-0.762 0.884,-1.262 1.646,-1.116c0.762,0.146 1.262,0.883 1.116,1.645c-0.44,2.296 -0.842,4.617 -1.299,6.924c-0.31,1.56 -0.644,3.114 -1.032,4.649l-0.176,2.295c-0.004,0.059 -0.048,0.367 -0.073,0.539Z" style="fill:#fff;"/><path d="M65.64,69.567l1.092,5.465l0.7,3.514l0.862,4.514c0.128,0.765 0.853,1.282 1.618,1.155c0.765,-0.128 1.283,-0.854 1.155,-1.619l-0.865,-4.534l-0.711,-3.573l-1.071,-5.344c-0.117,-0.768 -0.834,-1.296 -1.601,-1.179c-0.767,0.116 -1.295,0.834 -1.179,1.601Z" style="fill:#fff;"/><path d="M39.03,78.087c0.935,0 1.876,-0.138 2.816,-0.357c1.903,-0.441 3.806,-1.231 5.652,-1.665l8.714,-2.406l3.962,-0.77l7.114,-2.455c0.738,-0.241 1.14,-1.036 0.899,-1.773c-0.242,-0.738 -1.036,-1.14 -1.774,-0.899l-7.119,2.457l-3.671,0.691l-8.768,2.418c-1.844,0.434 -3.745,1.223 -5.644,1.664c-0.729,0.169 -1.457,0.284 -2.181,0.284c-0.776,-0 -1.405,0.629 -1.405,1.405c-0,0.776 0.629,1.406 1.405,1.406Z" style="fill:#fff;"/><path d="M41.903,67.716l0.463,0.065l1.708,0.301l4.207,1.207l4.423,1.653c1.734,0.449 3.495,0.722 5.233,1.115c0.789,0.179 1.574,0.38 2.351,0.629c1.707,0.546 3.391,1.172 5.09,1.682c1.09,0.327 2.186,0.606 3.301,0.776c0.767,0.118 1.294,0.835 1.177,1.602c-0.117,0.767 -0.835,1.295 -1.602,1.177c-1.244,-0.19 -2.468,-0.498 -3.684,-0.863c-1.716,-0.514 -3.416,-1.145 -5.139,-1.696c-0.698,-0.224 -1.404,-0.404 -2.114,-0.564c-1.766,-0.4 -3.555,-0.68 -5.317,-1.136l-4.522,-1.68l-4.081,-1.173c0,-0 -1.666,-0.291 -1.666,-0.291c0.007,0.001 0.114,0.021 0.114,0.021c-0,0 -0.273,-0.032 -0.359,-0.044c-1.132,-0.167 -1.24,-1.335 -1.24,-1.399c0,-0.776 0.63,-1.406 1.406,-1.406c0.086,0 0.17,0.008 0.251,0.024Z" style="fill:#fff;"/><path d="M99.055,52.507c-0.515,1.698 -1.904,2.811 -3.455,3.191c-2.057,0.504 -4.379,-0.28 -5.386,-2.633c-1.385,-3.238 0.207,-5.456 2.378,-6.434c2.55,-1.148 5.847,-0.274 6.595,2.372c0.374,1.322 0.272,2.513 -0.132,3.504Z" style="fill:#fff;"/><path d="M35.778,29.94l0.056,-0.871c0.041,-0.53 0.251,-0.832 0.282,-0.878l1.655,-2.149c0.364,-0.673 1.281,-1.551 2.477,-2.377c2.062,-1.424 4.949,-2.848 5.891,-3.189c1.144,-0.414 2.356,-0.78 3.565,-1.046c1.304,-0.287 2.606,-0.458 3.822,-0.458c3.596,0 7.005,0.771 9.973,2.042c3.503,1.501 6.389,3.702 8.276,6.147c0.548,0.71 0.416,1.731 -0.294,2.279c-0.71,0.548 -1.731,0.417 -2.279,-0.293c-1.587,-2.057 -4.036,-3.883 -6.983,-5.145c-2.587,-1.108 -5.558,-1.78 -8.693,-1.78c-0.994,0 -2.057,0.147 -3.123,0.382c-1.071,0.235 -2.144,0.561 -3.157,0.928c-0.723,0.262 -2.747,1.265 -4.455,2.348c-0.976,0.618 -1.886,1.198 -2.161,1.708l-1.578,2.097c-0.013,0.216 -0.029,0.471 -0.04,0.584c-0.131,1.388 -1.521,1.572 -1.634,1.572c-0.897,0 -1.625,-0.728 -1.625,-1.625c-0,-0.094 0.008,-0.186 0.025,-0.276Z" style="fill:#fff;"/><path d="M36.998,30.663c0.488,0.801 1.351,1.652 2.33,2.407c1.462,1.128 3.166,2.06 3.884,2.372c1.825,0.792 3.833,1.585 5.814,2.143c1.46,0.41 2.906,0.693 4.263,0.771c1.347,0.077 3.205,-0.087 5,-0.423c1.936,-0.362 3.794,-0.934 4.909,-1.567c2.014,-1.142 3.61,-1.754 5.3,-3.194c1.233,-1.05 2.52,-2.526 4.016,-4.956c0.47,-0.764 0.231,-1.766 -0.532,-2.236c-0.764,-0.47 -1.766,-0.231 -2.236,0.532c-1.258,2.044 -2.318,3.303 -3.355,4.186c-1.523,1.297 -2.982,1.812 -4.797,2.842c-0.883,0.501 -2.369,0.912 -3.903,1.199c-1.514,0.283 -3.08,0.437 -4.217,0.372c-1.136,-0.065 -2.345,-0.311 -3.567,-0.655c-1.841,-0.518 -3.705,-1.259 -5.4,-1.995c-0.511,-0.222 -1.62,-0.833 -2.689,-1.591c-0.824,-0.585 -1.645,-1.242 -2.044,-1.897c-0.467,-0.766 -1.467,-1.01 -2.233,-0.543c-0.766,0.466 -1.01,1.467 -0.543,2.233Z" style="fill:#fff;"/></svg>