<?xml version="1.0" encoding="UTF-8" standalone="no"?><!DOCTYPE svg PUBLIC "-//W3C//DTD SVG 1.1//EN" "http://www.w3.org/Graphics/SVG/1.1/DTD/svg11.dtd"><svg width="100%" height="100%" viewBox="0 0 110 110" version="1.1" xmlns="http://www.w3.org/2000/svg" xmlns:xlink="http://www.w3.org/1999/xlink" xml:space="preserve" xmlns:serif="http://www.serif.com/" style="fill-rule:evenodd;clip-rule:evenodd;stroke-linejoin:round;stroke-miterlimit:2;"><circle cx="54.58" cy="54.48" r="54.467" style="fill:#ffa0a0;"/><g><path d="M21.837,74.9c0.042,0.149 0.075,0.302 0.101,0.459c0.357,2.159 -0.82,4.127 -2.627,4.391c-1.118,0.164 -3.364,-0.248 -3.998,-3.491c-0.124,-0.633 -0.135,-2.316 -0.164,-2.658c-0.146,-1.694 -0.424,-3.418 -0.526,-5.133c-0.053,-0.909 -0.063,-1.816 -0.004,-2.717c0.277,-4.256 0.425,-8.548 0.515,-12.852c0.137,-6.543 0.139,-13.112 0.239,-19.624c0.033,-2.166 1.555,-3.764 3.397,-3.566c1.842,0.198 3.311,2.118 3.277,4.284c-0.1,6.53 -0.102,13.116 -0.239,19.676c-0.093,4.439 -0.247,8.865 -0.533,13.255l0.515,6.453c0.014,0.167 0.036,1.036 0.047,1.523Z" style="fill:#fff;"/><path d="M87.172,33.657l0.336,17.01l0.212,10.936l0.184,14.034c-0.011,2.373 1.476,4.194 3.318,4.064c1.843,-0.13 3.348,-2.162 3.359,-4.536l-0.184,-14.098l-0.213,-11.119l-0.336,-16.634c0.038,-2.375 -1.426,-4.226 -3.268,-4.131c-1.842,0.095 -3.369,2.099 -3.408,4.474Z" style="fill:#fff;"/><path d="M19.907,63.938c2.388,-0.089 4.776,-0.606 7.154,-1.37c4.809,-1.545 9.58,-4.165 14.247,-5.682l21.983,-8.262l10.035,-2.755l17.89,-8.262c1.856,-0.816 2.793,-3.308 2.091,-5.562c-0.702,-2.254 -2.778,-3.421 -4.634,-2.605l-17.905,8.267l-9.299,2.484l-22.121,8.305c-4.661,1.515 -9.425,4.132 -14.227,5.675c-1.842,0.592 -3.688,1.016 -5.538,1.085c-1.982,0.074 -3.519,2.079 -3.429,4.475c0.089,2.396 1.771,4.281 3.753,4.207Z" style="fill:#fff;"/><path d="M20.856,29.812l1.234,0.267l4.544,1.17l11.108,4.263l11.614,5.622c4.586,1.611 9.276,2.707 13.886,4.154c2.093,0.656 4.17,1.382 6.217,2.246c4.497,1.896 8.917,4.026 13.401,5.814c2.876,1.147 5.777,2.152 8.748,2.838c2.043,0.472 3.335,2.69 2.883,4.949c-0.452,2.26 -2.478,3.711 -4.521,3.239c-3.314,-0.765 -6.554,-1.876 -9.763,-3.156c-4.526,-1.805 -8.99,-3.952 -13.529,-5.867c-1.841,-0.776 -3.709,-1.426 -5.591,-2.016c-4.684,-1.47 -9.449,-2.591 -14.11,-4.228l-11.873,-5.719l-10.776,-4.141c0,-0 -4.433,-1.133 -4.433,-1.133c0.017,0.005 0.301,0.082 0.301,0.082c0,0 -0.728,-0.139 -0.957,-0.191c-3.016,-0.678 -3.1,-4.164 -3.088,-4.353c0.138,-2.305 1.945,-4.075 4.033,-3.951c0.231,0.014 0.455,0.051 0.672,0.111Z" style="fill:#fff;"/></g></svg>