<?xml version="1.0" encoding="UTF-8" standalone="no"?><!DOCTYPE svg PUBLIC "-//W3C//DTD SVG 1.1//EN" "http://www.w3.org/Graphics/SVG/1.1/DTD/svg11.dtd"><svg width="100%" height="100%" viewBox="0 0 259 203" version="1.1" xmlns="http://www.w3.org/2000/svg" xmlns:xlink="http://www.w3.org/1999/xlink" xml:space="preserve" xmlns:serif="http://www.serif.com/" style="fill-rule:evenodd;clip-rule:evenodd;stroke-linejoin:round;stroke-miterlimit:2;"><path d="M129.291,18.519c64.542,0 117.026,56.214 117.754,125.753c0.003,0.387 -0.149,0.759 -0.421,1.034c-0.272,0.274 -0.643,0.429 -1.03,0.429c-5.94,0.001 -28.32,0.001 -35.146,0.001c-0.464,-0 -0.899,0.221 -1.172,0.595c-0.274,0.375 -0.352,0.857 -0.21,1.298c2.702,8.437 13.628,42.553 16.33,50.989c0.141,0.442 0.063,0.924 -0.21,1.298c-0.273,0.375 -0.709,0.596 -1.172,0.596c-19.142,-0 -170.436,-0 -189.469,-0c-0.461,-0 -0.894,-0.219 -1.168,-0.589c-0.273,-0.371 -0.355,-0.849 -0.219,-1.289c2.59,-8.415 13.115,-42.605 15.705,-51.02c0.136,-0.44 0.054,-0.919 -0.22,-1.289c-0.273,-0.371 -0.706,-0.589 -1.167,-0.589c-6.709,-0 -28.618,-0 -34.488,-0c-0.387,-0 -0.758,-0.155 -1.031,-0.43c-0.272,-0.274 -0.424,-0.647 -0.421,-1.034c0.726,-69.737 53.211,-125.753 117.755,-125.753Z" style="fill:#ffd97f;"/><path d="M129.291,0.68c70.813,-0 128.395,57.097 129.181,127.725c0.003,0.387 -0.148,0.759 -0.421,1.033c-0.272,0.275 -0.643,0.43 -1.03,0.43c-6.335,0.001 -31.476,0.001 -38.842,0.001c-0.469,-0 -0.909,0.227 -1.182,0.609c-0.272,0.382 -0.342,0.873 -0.189,1.316c2.965,8.571 14.948,43.204 17.913,51.775c0.153,0.443 0.083,0.934 -0.189,1.316c-0.273,0.382 -0.713,0.609 -1.183,0.609l-208.142,0c-0.467,0 -0.904,-0.224 -1.177,-0.602c-0.273,-0.378 -0.347,-0.864 -0.2,-1.307c2.842,-8.548 14.385,-43.259 17.228,-51.807c0.147,-0.443 0.072,-0.929 -0.2,-1.307c-0.273,-0.378 -0.711,-0.602 -1.177,-0.602c-7.239,-0 -31.858,-0 -38.12,-0c-0.388,-0 -0.759,-0.155 -1.031,-0.43c-0.273,-0.275 -0.424,-0.647 -0.421,-1.034c0.785,-70.829 58.368,-127.725 129.182,-127.725Z" style="fill:#ffa0a0;"/><path d="M18.639,92.077c7.394,5.018 17.359,8.855 27.632,10.904c10.422,2.078 21.148,2.306 29.805,0.221c2.866,-0.69 5.625,-1.776 8.32,-3.058c3.662,-1.743 7.205,-3.858 10.783,-5.7c1.963,-1.01 2.736,-3.424 1.726,-5.387c-1.01,-1.963 -3.424,-2.736 -5.387,-1.726c-3.504,1.804 -6.972,3.882 -10.559,5.589c-2.191,1.042 -4.426,1.943 -6.756,2.504c-7.659,1.845 -17.147,1.55 -26.368,-0.289c-9.175,-1.829 -18.1,-5.195 -24.704,-9.677c-1.827,-1.24 -4.316,-0.763 -5.556,1.063c-1.24,1.827 -0.763,4.317 1.064,5.556Z" style="fill:#fff;"/><path d="M45.669,108.335c-0.214,2.006 -1.914,3.57 -3.976,3.57c-2.208,0 -4,-1.792 -4,-4c-0,-0.824 0.179,-1.683 0.537,-2.548c0.407,-0.987 1.471,-1.972 1.663,-2.973c0.416,-2.169 2.513,-3.591 4.682,-3.176c2.168,0.416 3.591,2.514 3.175,4.682c-0.255,1.331 -1.794,3.963 -2.081,4.445Z" style="fill:#fff;"/><path d="M55.861,107.171l0.791,4.505c0,2.207 1.792,4 4,4c2.208,-0 4,-1.793 4,-4l-0.899,-5.82c-0.363,-2.178 -2.426,-3.651 -4.604,-3.288c-2.177,0.363 -3.65,2.426 -3.288,4.603Z" style="fill:#fff;"/><path d="M71.326,104.594c-0,0.729 0.132,1.523 0.395,2.344c0.431,1.347 1.458,2.878 1.793,4.066c0.6,2.125 2.812,3.363 4.936,2.764c2.125,-0.6 3.363,-2.812 2.764,-4.936l-1.888,-4.238c-0,-2.207 -1.792,-4 -4,-4c-2.208,0 -4,1.793 -4,4Z" style="fill:#fff;"/><path d="M29.968,97.535c-1.204,1.492 -2.656,3.125 -3.735,4.849c-0.614,0.982 -1.119,1.995 -1.462,3.024c-0.699,2.095 0.433,4.362 2.527,5.061c2.094,0.699 4.362,-0.433 5.061,-2.528c0.211,-0.632 0.584,-1.234 0.995,-1.827c0.875,-1.259 1.945,-2.445 2.84,-3.554c1.386,-1.718 1.117,-4.239 -0.601,-5.625c-1.718,-1.387 -4.238,-1.118 -5.625,0.6Z" style="fill:#fff;"/><path d="M236.444,96.382c-0.338,-3.154 -0.575,-5.657 -1.71,-7.87c-1.107,-2.161 -2.974,-4.179 -6.729,-6.028c-4.697,-2.313 -9.694,-3.169 -14.557,-3.166c-8.031,0.005 -15.655,2.395 -20.51,3.834c-1.363,0.404 -3.888,1.251 -6.17,2.113c-1.753,0.663 -3.368,1.345 -4.309,1.855l-7.402,4.59l-5.158,4.841c-1.708,1.399 -1.959,3.921 -0.561,5.629c1.399,1.708 3.921,1.959 5.629,0.56l4.756,-4.532l6.546,-4.054l8.942,-3.332c4.322,-1.28 11.092,-3.5 18.242,-3.504c3.676,-0.002 7.466,0.594 11.018,2.343c1.669,0.822 2.652,1.539 3.144,2.5c0.726,1.415 0.658,3.057 0.874,5.073c0.235,2.195 2.208,3.787 4.403,3.551c2.195,-0.235 3.787,-2.208 3.552,-4.403Z" style="fill:#fff;"/><path d="M90.59,176.886c0.023,0.15 0.036,0.303 0.04,0.457c0.052,2.207 -1.697,4.042 -3.904,4.095c-1.363,0.032 -3.976,-0.641 -4.173,-3.964c-0.037,-0.632 0.233,-2.277 0.257,-2.615c0.115,-1.66 0.083,-3.366 0.253,-5.044c0.091,-0.894 0.232,-1.781 0.453,-2.655c1.034,-4.095 1.925,-8.241 2.751,-12.404c1.255,-6.333 2.359,-12.706 3.567,-19.013c0.415,-2.168 2.512,-3.592 4.681,-3.176c2.168,0.415 3.591,2.512 3.176,4.681c-1.211,6.324 -2.318,12.714 -3.577,19.064c-0.852,4.298 -1.774,8.578 -2.841,12.807l-0.483,6.297c-0.011,0.161 -0.13,0.995 -0.2,1.47Z" style="fill:#fff;"/><path d="M159.679,137.805l3.007,15.053l1.927,9.672l2.372,12.426c0.364,2.178 2.427,3.65 4.605,3.286c2.177,-0.364 3.65,-2.427 3.286,-4.605l-2.382,-12.485l-1.959,-9.84l-2.947,-14.709c-0.331,-2.182 -2.372,-3.685 -4.555,-3.354c-2.183,0.332 -3.686,2.373 -3.354,4.556Z" style="fill:#fff;"/><path d="M86.544,161.373c2.583,0 5.183,-0.382 7.783,-0.985c5.237,-1.216 10.477,-3.389 15.561,-4.585l23.988,-6.623l10.923,-2.123l19.586,-6.76c2.098,-0.687 3.244,-2.948 2.557,-5.046c-0.687,-2.098 -2.948,-3.244 -5.046,-2.557l-19.602,6.765l-10.094,1.898l-24.143,6.659c-5.077,1.193 -10.309,3.365 -15.539,4.579c-1.996,0.463 -3.99,0.778 -5.974,0.778c-2.208,0 -4,1.793 -4,4c-0,2.208 1.792,4 4,4Z" style="fill:#fff;"/><path d="M94.461,132.56l1.296,0.182l4.705,0.83l11.587,3.325l12.175,4.55c4.772,1.235 9.618,1.987 14.403,3.069c2.177,0.491 4.342,1.048 6.484,1.734c4.698,1.503 9.333,3.225 14.011,4.629c2.996,0.899 6.008,1.665 9.072,2.134c2.182,0.334 3.683,2.377 3.349,4.559c-0.334,2.182 -2.377,3.683 -4.559,3.349c-3.43,-0.525 -6.807,-1.373 -10.161,-2.38c-4.724,-1.417 -9.405,-3.154 -14.149,-4.672c-1.92,-0.614 -3.86,-1.109 -5.81,-1.55c-4.866,-1.1 -9.792,-1.872 -14.643,-3.127l-12.455,-4.627l-11.23,-3.228l-4.585,-0.801c0.018,0.004 0.326,0.062 0.326,0.062c-0,-0 -0.754,-0.09 -0.991,-0.125c-3.218,-0.475 -3.524,-3.796 -3.524,-3.978c0,-2.207 1.793,-4 4,-4c0.239,0 0.472,0.021 0.699,0.065Z" style="fill:#fff;"/><path d="M141.949,43.147c0.994,0.246 1.893,0.871 2.463,1.816c1.14,1.89 0.531,4.351 -1.36,5.491l-4.331,5.199c-4.189,3.832 -9.337,5.149 -13.801,4.185c-4.62,-0.998 -8.707,-4.376 -10.395,-10.442c-0.45,-1.618 -0.823,-3.431 -0.91,-5.222c-0.069,-1.402 0.036,-2.791 0.364,-4.096c2.205,-8.779 10.68,-11.617 17.704,-9.509c4.434,1.331 8.3,4.548 9.524,9.346c0.383,0.982 0.639,2.058 0.742,3.232Z" style="fill:#fff;"/><path d="M235.323,101.079c-1.244,4.086 -4.588,6.763 -8.32,7.678c-4.957,1.214 -10.551,-0.676 -12.978,-6.348c-3.336,-7.798 0.501,-13.138 5.729,-15.492c6.145,-2.766 14.083,-0.644 15.886,5.731c0.9,3.181 0.653,6.046 -0.317,8.431Z" style="fill:#fff;"/><path d="M84.361,47.269l0.133,-2.072c0.101,-1.3 0.617,-2.041 0.693,-2.154l3.936,-5.107c0.874,-1.616 3.07,-3.724 5.94,-5.706c4.922,-3.4 11.812,-6.797 14.062,-7.612c2.728,-0.988 5.62,-1.861 8.506,-2.497c3.115,-0.685 6.226,-1.092 9.131,-1.092c8.584,0 16.721,1.84 23.804,4.874c8.365,3.583 15.257,8.842 19.763,14.68c1.349,1.748 1.025,4.262 -0.723,5.611c-1.747,1.349 -4.261,1.025 -5.61,-0.723c-3.769,-4.884 -9.583,-9.217 -16.58,-12.214c-6.146,-2.633 -13.206,-4.228 -20.654,-4.228c-2.359,0 -4.882,0.349 -7.411,0.905c-2.545,0.561 -5.095,1.334 -7.501,2.206c-1.48,0.536 -5.252,2.385 -8.861,4.524c-2.989,1.772 -6.012,3.566 -6.829,5.077l-3.744,4.98c-0.031,0.506 -0.069,1.093 -0.094,1.357c-0.321,3.412 -3.742,3.861 -4.021,3.861c-2.208,0 -4,-1.792 -4,-4c-0,-0.228 0.019,-0.453 0.06,-0.67Z" style="fill:#fff;"/><path d="M87.286,49.071c1.169,1.92 3.235,3.96 5.581,5.769c3.493,2.692 7.563,4.919 9.279,5.664c4.352,1.889 9.14,3.78 13.863,5.109c3.486,0.981 6.941,1.657 10.181,1.842c3.218,0.184 7.655,-0.206 11.94,-1.008c4.628,-0.867 9.068,-2.235 11.732,-3.747c4.805,-2.726 8.612,-4.187 12.645,-7.622c2.943,-2.507 6.017,-6.032 9.589,-11.835c1.158,-1.88 0.571,-4.346 -1.309,-5.503c-1.88,-1.157 -4.346,-0.571 -5.503,1.31c-2.987,4.852 -5.504,7.842 -7.965,9.938c-3.62,3.083 -7.091,4.306 -11.405,6.754c-2.095,1.189 -5.618,2.16 -9.256,2.841c-3.595,0.673 -7.313,1.039 -10.012,0.885c-2.696,-0.154 -5.568,-0.739 -8.469,-1.556c-4.378,-1.232 -8.812,-2.995 -12.845,-4.746c-1.212,-0.526 -3.844,-1.977 -6.381,-3.776c-1.946,-1.381 -3.89,-2.932 -4.833,-4.48c-1.148,-1.886 -3.611,-2.484 -5.496,-1.336c-1.886,1.148 -2.485,3.611 -1.336,5.497Z" style="fill:#fff;"/><path d="M129.291,18.519c64.542,0 117.026,56.214 117.754,125.753c0.003,0.387 -0.149,0.759 -0.421,1.034c-0.272,0.274 -0.643,0.429 -1.03,0.429c-5.94,0.001 -28.32,0.001 -35.146,0.001c-0.464,-0 -0.899,0.221 -1.172,0.595c-0.274,0.375 -0.352,0.857 -0.21,1.298c2.702,8.437 13.628,42.553 16.33,50.989c0.141,0.442 0.063,0.924 -0.21,1.298c-0.273,0.375 -0.709,0.596 -1.172,0.596c-19.142,-0 -170.436,-0 -189.469,-0c-0.461,-0 -0.894,-0.219 -1.168,-0.589c-0.273,-0.371 -0.355,-0.849 -0.219,-1.289c2.59,-8.415 13.115,-42.605 15.705,-51.02c0.136,-0.44 0.054,-0.919 -0.22,-1.289c-0.273,-0.371 -0.706,-0.589 -1.167,-0.589c-6.709,-0 -28.618,-0 -34.488,-0c-0.387,-0 -0.758,-0.155 -1.031,-0.43c-0.272,-0.274 -0.424,-0.647 -0.421,-1.034c0.726,-69.737 53.211,-125.753 117.755,-125.753Z" style="fill:#ffd97f;"/><path d="M129.291,0.68c70.813,-0 128.395,57.097 129.181,127.725c0.003,0.387 -0.148,0.759 -0.421,1.033c-0.272,0.275 -0.643,0.43 -1.03,0.43c-6.335,0.001 -31.476,0.001 -38.842,0.001c-0.469,-0 -0.909,0.227 -1.182,0.609c-0.272,0.382 -0.342,0.873 -0.189,1.316c2.965,8.571 14.948,43.204 17.913,51.775c0.153,0.443 0.083,0.934 -0.189,1.316c-0.273,0.382 -0.713,0.609 -1.183,0.609l-208.142,0c-0.467,0 -0.904,-0.224 -1.177,-0.602c-0.273,-0.378 -0.347,-0.864 -0.2,-1.307c2.842,-8.548 14.385,-43.259 17.228,-51.807c0.147,-0.443 0.072,-0.929 -0.2,-1.307c-0.273,-0.378 -0.711,-0.602 -1.177,-0.602c-7.239,-0 -31.858,-0 -38.12,-0c-0.388,-0 -0.759,-0.155 -1.031,-0.43c-0.273,-0.275 -0.424,-0.647 -0.421,-1.034c0.785,-70.829 58.368,-127.725 129.182,-127.725Z" style="fill:#ffa0a0;"/><path d="M18.639,92.077c7.394,5.018 17.359,8.855 27.632,10.904c10.422,2.078 21.148,2.306 29.805,0.221c2.866,-0.69 5.625,-1.776 8.32,-3.058c3.662,-1.743 7.205,-3.858 10.783,-5.7c1.963,-1.01 2.736,-3.424 1.726,-5.387c-1.01,-1.963 -3.424,-2.736 -5.387,-1.726c-3.504,1.804 -6.972,3.882 -10.559,5.589c-2.191,1.042 -4.426,1.943 -6.756,2.504c-7.659,1.845 -17.147,1.55 -26.368,-0.289c-9.175,-1.829 -18.1,-5.195 -24.704,-9.677c-1.827,-1.24 -4.316,-0.763 -5.556,1.063c-1.24,1.827 -0.763,4.317 1.064,5.556Z" style="fill:#fff;"/><path d="M45.669,108.335c-0.214,2.006 -1.914,3.57 -3.976,3.57c-2.208,0 -4,-1.792 -4,-4c-0,-0.824 0.179,-1.683 0.537,-2.548c0.407,-0.987 1.471,-1.972 1.663,-2.973c0.416,-2.169 2.513,-3.591 4.682,-3.176c2.168,0.416 3.591,2.514 3.175,4.682c-0.255,1.331 -1.794,3.963 -2.081,4.445Z" style="fill:#fff;"/><path d="M55.861,107.171l0.791,4.505c0,2.207 1.792,4 4,4c2.208,-0 4,-1.793 4,-4l-0.899,-5.82c-0.363,-2.178 -2.426,-3.651 -4.604,-3.288c-2.177,0.363 -3.65,2.426 -3.288,4.603Z" style="fill:#fff;"/><path d="M71.326,104.594c-0,0.729 0.132,1.523 0.395,2.344c0.431,1.347 1.458,2.878 1.793,4.066c0.6,2.125 2.812,3.363 4.936,2.764c2.125,-0.6 3.363,-2.812 2.764,-4.936l-1.888,-4.238c-0,-2.207 -1.792,-4 -4,-4c-2.208,0 -4,1.793 -4,4Z" style="fill:#fff;"/><path d="M29.968,97.535c-1.204,1.492 -2.656,3.125 -3.735,4.849c-0.614,0.982 -1.119,1.995 -1.462,3.024c-0.699,2.095 0.433,4.362 2.527,5.061c2.094,0.699 4.362,-0.433 5.061,-2.528c0.211,-0.632 0.584,-1.234 0.995,-1.827c0.875,-1.259 1.945,-2.445 2.84,-3.554c1.386,-1.718 1.117,-4.239 -0.601,-5.625c-1.718,-1.387 -4.238,-1.118 -5.625,0.6Z" style="fill:#fff;"/><path d="M236.444,96.382c-0.338,-3.154 -0.575,-5.657 -1.71,-7.87c-1.107,-2.161 -2.974,-4.179 -6.729,-6.028c-4.697,-2.313 -9.694,-3.169 -14.557,-3.166c-8.031,0.005 -15.655,2.395 -20.51,3.834c-1.363,0.404 -3.888,1.251 -6.17,2.113c-1.753,0.663 -3.368,1.345 -4.309,1.855l-7.402,4.59l-5.158,4.841c-1.708,1.399 -1.959,3.921 -0.561,5.629c1.399,1.708 3.921,1.959 5.629,0.56l4.756,-4.532l6.546,-4.054l8.942,-3.332c4.322,-1.28 11.092,-3.5 18.242,-3.504c3.676,-0.002 7.466,0.594 11.018,2.343c1.669,0.822 2.652,1.539 3.144,2.5c0.726,1.415 0.658,3.057 0.874,5.073c0.235,2.195 2.208,3.787 4.403,3.551c2.195,-0.235 3.787,-2.208 3.552,-4.403Z" style="fill:#fff;"/><path d="M90.59,176.886c0.023,0.15 0.036,0.303 0.04,0.457c0.052,2.207 -1.697,4.042 -3.904,4.095c-1.363,0.032 -3.976,-0.641 -4.173,-3.964c-0.037,-0.632 0.233,-2.277 0.257,-2.615c0.115,-1.66 0.083,-3.366 0.253,-5.044c0.091,-0.894 0.232,-1.781 0.453,-2.655c1.034,-4.095 1.925,-8.241 2.751,-12.404c1.255,-6.333 2.359,-12.706 3.567,-19.013c0.415,-2.168 2.512,-3.592 4.681,-3.176c2.168,0.415 3.591,2.512 3.176,4.681c-1.211,6.324 -2.318,12.714 -3.577,19.064c-0.852,4.298 -1.774,8.578 -2.841,12.807l-0.483,6.297c-0.011,0.161 -0.13,0.995 -0.2,1.47Z" style="fill:#fff;"/><path d="M159.679,137.805l3.007,15.053l1.927,9.672l2.372,12.426c0.364,2.178 2.427,3.65 4.605,3.286c2.177,-0.364 3.65,-2.427 3.286,-4.605l-2.382,-12.485l-1.959,-9.84l-2.947,-14.709c-0.331,-2.182 -2.372,-3.685 -4.555,-3.354c-2.183,0.332 -3.686,2.373 -3.354,4.556Z" style="fill:#fff;"/><path d="M86.544,161.373c2.583,0 5.183,-0.382 7.783,-0.985c5.237,-1.216 10.477,-3.389 15.561,-4.585l23.988,-6.623l10.923,-2.123l19.586,-6.76c2.098,-0.687 3.244,-2.948 2.557,-5.046c-0.687,-2.098 -2.948,-3.244 -5.046,-2.557l-19.602,6.765l-10.094,1.898l-24.143,6.659c-5.077,1.193 -10.309,3.365 -15.539,4.579c-1.996,0.463 -3.99,0.778 -5.974,0.778c-2.208,0 -4,1.793 -4,4c-0,2.208 1.792,4 4,4Z" style="fill:#fff;"/><path d="M94.461,132.56l1.296,0.182l4.705,0.83l11.587,3.325l12.175,4.55c4.772,1.235 9.618,1.987 14.403,3.069c2.177,0.491 4.342,1.048 6.484,1.734c4.698,1.503 9.333,3.225 14.011,4.629c2.996,0.899 6.008,1.665 9.072,2.134c2.182,0.334 3.683,2.377 3.349,4.559c-0.334,2.182 -2.377,3.683 -4.559,3.349c-3.43,-0.525 -6.807,-1.373 -10.161,-2.38c-4.724,-1.417 -9.405,-3.154 -14.149,-4.672c-1.92,-0.614 -3.86,-1.109 -5.81,-1.55c-4.866,-1.1 -9.792,-1.872 -14.643,-3.127l-12.455,-4.627l-11.23,-3.228l-4.585,-0.801c0.018,0.004 0.326,0.062 0.326,0.062c-0,-0 -0.754,-0.09 -0.991,-0.125c-3.218,-0.475 -3.524,-3.796 -3.524,-3.978c0,-2.207 1.793,-4 4,-4c0.239,0 0.472,0.021 0.699,0.065Z" style="fill:#fff;"/><path d="M141.949,43.147c0.994,0.246 1.893,0.871 2.463,1.816c1.14,1.89 0.531,4.351 -1.36,5.491l-4.331,5.199c-4.189,3.832 -9.337,5.149 -13.801,4.185c-4.62,-0.998 -8.707,-4.376 -10.395,-10.442c-0.45,-1.618 -0.823,-3.431 -0.91,-5.222c-0.069,-1.402 0.036,-2.791 0.364,-4.096c2.205,-8.779 10.68,-11.617 17.704,-9.509c4.434,1.331 8.3,4.548 9.524,9.346c0.383,0.982 0.639,2.058 0.742,3.232Z" style="fill:#fff;"/><path d="M235.323,101.079c-1.244,4.086 -4.588,6.763 -8.32,7.678c-4.957,1.214 -10.551,-0.676 -12.978,-6.348c-3.336,-7.798 0.501,-13.138 5.729,-15.492c6.145,-2.766 14.083,-0.644 15.886,5.731c0.9,3.181 0.653,6.046 -0.317,8.431Z" style="fill:#fff;"/><path d="M84.361,47.269l0.133,-2.072c0.101,-1.3 0.617,-2.041 0.693,-2.154l3.936,-5.107c0.874,-1.616 3.07,-3.724 5.94,-5.706c4.922,-3.4 11.812,-6.797 14.062,-7.612c2.728,-0.988 5.62,-1.861 8.506,-2.497c3.115,-0.685 6.226,-1.092 9.131,-1.092c8.584,0 16.721,1.84 23.804,4.874c8.365,3.583 15.257,8.842 19.763,14.68c1.349,1.748 1.025,4.262 -0.723,5.611c-1.747,1.349 -4.261,1.025 -5.61,-0.723c-3.769,-4.884 -9.583,-9.217 -16.58,-12.214c-6.146,-2.633 -13.206,-4.228 -20.654,-4.228c-2.359,0 -4.882,0.349 -7.411,0.905c-2.545,0.561 -5.095,1.334 -7.501,2.206c-1.48,0.536 -5.252,2.385 -8.861,4.524c-2.989,1.772 -6.012,3.566 -6.829,5.077l-3.744,4.98c-0.031,0.506 -0.069,1.093 -0.094,1.357c-0.321,3.412 -3.742,3.861 -4.021,3.861c-2.208,0 -4,-1.792 -4,-4c-0,-0.228 0.019,-0.453 0.06,-0.67Z" style="fill:#fff;"/><path d="M87.286,49.071c1.169,1.92 3.235,3.96 5.581,5.769c3.493,2.692 7.563,4.919 9.279,5.664c4.352,1.889 9.14,3.78 13.863,5.109c3.486,0.981 6.941,1.657 10.181,1.842c3.218,0.184 7.655,-0.206 11.94,-1.008c4.628,-0.867 9.068,-2.235 11.732,-3.747c4.805,-2.726 8.612,-4.187 12.645,-7.622c2.943,-2.507 6.017,-6.032 9.589,-11.835c1.158,-1.88 0.571,-4.346 -1.309,-5.503c-1.88,-1.157 -4.346,-0.571 -5.503,1.31c-2.987,4.852 -5.504,7.842 -7.965,9.938c-3.62,3.083 -7.091,4.306 -11.405,6.754c-2.095,1.189 -5.618,2.16 -9.256,2.841c-3.595,0.673 -7.313,1.039 -10.012,0.885c-2.696,-0.154 -5.568,-0.739 -8.469,-1.556c-4.378,-1.232 -8.812,-2.995 -12.845,-4.746c-1.212,-0.526 -3.844,-1.977 -6.381,-3.776c-1.946,-1.381 -3.89,-2.932 -4.833,-4.48c-1.148,-1.886 -3.611,-2.484 -5.496,-1.336c-1.886,1.148 -2.485,3.611 -1.336,5.497Z" style="fill:#fff;"/></svg>