<?xml version="1.0" encoding="UTF-8" standalone="no"?><!DOCTYPE svg PUBLIC "-//W3C//DTD SVG 1.1//EN" "http://www.w3.org/Graphics/SVG/1.1/DTD/svg11.dtd"><svg width="100%" height="100%" viewBox="0 0 259 203" version="1.1" xmlns="http://www.w3.org/2000/svg" xmlns:xlink="http://www.w3.org/1999/xlink" xml:space="preserve" xmlns:serif="http://www.serif.com/" style="fill-rule:evenodd;clip-rule:evenodd;stroke-linejoin:round;stroke-miterlimit:2;"><path d="M129.291,11.196c64.542,0 117.026,56.214 117.754,125.753c0.003,0.387 -0.149,0.759 -0.421,1.034c-0.272,0.274 -0.643,0.429 -1.03,0.429c-5.94,0.001 -28.32,0.001 -35.146,0.001c-0.464,-0 -0.899,0.221 -1.172,0.595c-0.274,0.375 -0.352,0.857 -0.21,1.298c2.702,8.437 13.628,42.553 16.33,50.989c0.141,0.442 0.063,0.924 -0.21,1.298c-0.273,0.375 -0.709,0.596 -1.172,0.596c-19.142,-0 -170.436,-0 -189.469,-0c-0.461,-0 -0.894,-0.219 -1.168,-0.589c-0.273,-0.371 -0.355,-0.849 -0.219,-1.289c2.59,-8.415 13.115,-42.605 15.705,-51.02c0.136,-0.44 0.054,-0.919 -0.22,-1.289c-0.273,-0.371 -0.706,-0.589 -1.167,-0.589c-6.709,-0 -28.618,-0 -34.488,-0c-0.387,-0 -0.758,-0.155 -1.031,-0.43c-0.272,-0.274 -0.424,-0.647 -0.421,-1.034c0.726,-69.737 53.211,-125.753 117.755,-125.753Z" style="fill:#ffd97f;"/><path d="M129.312,-0.926c70.812,0 128.394,57.097 129.18,127.725c0.004,0.387 -0.148,0.759 -0.42,1.034c-0.272,0.275 -0.643,0.429 -1.03,0.429c-6.335,0.001 -31.476,0.001 -38.842,0.001c-0.469,0 -0.91,0.227 -1.182,0.609c-0.272,0.383 -0.343,0.873 -0.189,1.317c2.965,8.571 14.947,43.203 17.913,51.774c0.153,0.444 0.082,0.934 -0.19,1.316c-0.272,0.383 -0.712,0.61 -1.182,0.61l-208.143,-0c-0.466,-0 -0.904,-0.224 -1.177,-0.603c-0.272,-0.378 -0.347,-0.864 -0.2,-1.306c2.843,-8.549 14.386,-43.26 17.228,-51.808c0.148,-0.442 0.073,-0.929 -0.2,-1.307c-0.272,-0.378 -0.71,-0.602 -1.177,-0.602c-7.238,0 -31.858,0 -38.12,0c-0.387,0 -0.758,-0.155 -1.03,-0.43c-0.273,-0.274 -0.424,-0.647 -0.421,-1.034c0.785,-70.829 58.368,-127.725 129.182,-127.725Z" style="fill:#ffa0a0;"/><path d="M20.489,85.176c7.394,5.018 17.36,8.855 27.632,10.903c10.423,2.078 21.148,2.306 29.806,0.221c2.866,-0.69 5.624,-1.775 8.32,-3.058c3.661,-1.742 7.205,-3.858 10.782,-5.699c1.963,-1.011 2.737,-3.424 1.727,-5.387c-1.011,-1.963 -3.424,-2.737 -5.387,-1.727c-3.505,1.804 -6.973,3.882 -10.56,5.589c-2.191,1.043 -4.426,1.944 -6.755,2.505c-7.66,1.844 -17.147,1.549 -26.368,-0.29c-9.176,-1.829 -18.1,-5.195 -24.704,-9.677c-1.827,-1.24 -4.317,-0.763 -5.556,1.064c-1.24,1.827 -0.763,4.316 1.063,5.556Z" style="fill:#fff;"/><path d="M47.519,101.433c-0.213,2.006 -1.913,3.571 -3.976,3.571c-2.207,-0 -4,-1.793 -4,-4c0,-0.825 0.18,-1.683 0.537,-2.549c0.408,-0.986 1.472,-1.971 1.664,-2.973c0.415,-2.168 2.513,-3.591 4.681,-3.176c2.168,0.416 3.591,2.514 3.176,4.682c-0.256,1.332 -1.795,3.963 -2.082,4.445Z" style="fill:#fff;"/><path d="M57.712,100.269l0.791,4.505c-0,2.208 1.792,4 4,4c2.207,-0 4,-1.792 4,-4l-0.9,-5.82c-0.363,-2.177 -2.425,-3.651 -4.603,-3.288c-2.178,0.363 -3.651,2.426 -3.288,4.603Z" style="fill:#fff;"/><path d="M73.177,97.692c-0,0.729 0.131,1.523 0.394,2.344c0.432,1.348 1.459,2.878 1.794,4.067c0.599,2.124 2.811,3.363 4.936,2.763c2.125,-0.6 3.363,-2.811 2.763,-4.936l-1.887,-4.238c-0,-2.207 -1.793,-4 -4,-4c-2.208,0 -4,1.793 -4,4Z" style="fill:#fff;"/><path d="M31.819,90.633c-1.204,1.492 -2.657,3.126 -3.735,4.849c-0.615,0.982 -1.119,1.995 -1.463,3.025c-0.699,2.094 0.434,4.361 2.528,5.06c2.094,0.699 4.362,-0.433 5.061,-2.527c0.211,-0.633 0.583,-1.235 0.995,-1.827c0.874,-1.26 1.944,-2.446 2.839,-3.555c1.387,-1.718 1.118,-4.238 -0.6,-5.625c-1.718,-1.386 -4.238,-1.117 -5.625,0.6Z" style="fill:#fff;"/><path d="M238.294,89.481c-0.338,-3.155 -0.574,-5.658 -1.709,-7.871c-1.108,-2.161 -2.974,-4.178 -6.729,-6.028c-4.697,-2.313 -9.695,-3.168 -14.557,-3.166c-8.031,0.005 -15.655,2.396 -20.51,3.834c-1.363,0.404 -3.889,1.251 -6.17,2.113c-1.753,0.663 -3.368,1.345 -4.309,1.855l-7.402,4.59l-5.159,4.841c-1.708,1.399 -1.959,3.921 -0.56,5.629c1.399,1.708 3.921,1.959 5.629,0.561l4.755,-4.533l6.547,-4.054l8.942,-3.331c4.322,-1.281 11.092,-3.501 18.242,-3.505c3.676,-0.002 7.466,0.594 11.017,2.343c1.67,0.823 2.652,1.539 3.145,2.5c0.725,1.415 0.658,3.057 0.874,5.073c0.235,2.196 2.208,3.787 4.403,3.552c2.195,-0.235 3.786,-2.208 3.551,-4.403Z" style="fill:#fff;"/><path d="M92.441,169.985c0.023,0.149 0.035,0.302 0.039,0.457c0.053,2.207 -1.696,4.041 -3.903,4.094c-1.363,0.033 -3.977,-0.641 -4.173,-3.964c-0.038,-0.632 0.233,-2.277 0.256,-2.614c0.116,-1.661 0.083,-3.367 0.254,-5.045c0.09,-0.894 0.232,-1.781 0.453,-2.654c1.034,-4.096 1.925,-8.242 2.751,-12.405c1.255,-6.332 2.358,-12.706 3.566,-19.013c0.416,-2.168 2.513,-3.591 4.681,-3.176c2.169,0.415 3.592,2.513 3.176,4.681c-1.211,6.324 -2.317,12.715 -3.576,19.064c-0.852,4.298 -1.774,8.578 -2.842,12.807l-0.482,6.297c-0.011,0.162 -0.131,0.995 -0.2,1.471Z" style="fill:#fff;"/><path d="M161.53,130.903l3.007,15.053l1.927,9.672l2.372,12.427c0.364,2.177 2.427,3.649 4.604,3.285c2.178,-0.364 3.65,-2.427 3.286,-4.605l-2.382,-12.485l-1.958,-9.84l-2.947,-14.709c-0.332,-2.182 -2.373,-3.685 -4.555,-3.353c-2.183,0.331 -3.686,2.372 -3.354,4.555Z" style="fill:#fff;"/><path d="M88.394,154.471c2.583,0 5.184,-0.382 7.783,-0.985c5.238,-1.215 10.478,-3.389 15.562,-4.584l23.988,-6.624l10.923,-2.123l19.586,-6.76c2.098,-0.687 3.243,-2.948 2.556,-5.046c-0.687,-2.098 -2.948,-3.244 -5.046,-2.557l-19.602,6.765l-10.093,1.899l-24.143,6.658c-5.077,1.194 -10.309,3.366 -15.539,4.579c-1.997,0.463 -3.991,0.778 -5.975,0.778c-2.207,0 -4,1.793 -4,4c0,2.208 1.793,4 4,4Z" style="fill:#fff;"/><path d="M96.311,125.658l1.297,0.183l4.705,0.829l11.587,3.326l12.175,4.55c4.771,1.234 9.618,1.987 14.403,3.068c2.177,0.492 4.342,1.049 6.484,1.734c4.698,1.503 9.333,3.225 14.011,4.629c2.995,0.899 6.008,1.666 9.071,2.134c2.183,0.334 3.683,2.377 3.349,4.559c-0.333,2.182 -2.376,3.683 -4.559,3.349c-3.43,-0.524 -6.806,-1.373 -10.161,-2.38c-4.723,-1.417 -9.405,-3.154 -14.149,-4.671c-1.919,-0.614 -3.859,-1.11 -5.81,-1.551c-4.865,-1.099 -9.791,-1.871 -14.643,-3.126l-12.455,-4.628l-11.229,-3.228l-4.585,-0.801c0.018,0.004 0.325,0.062 0.325,0.062c0,-0 -0.753,-0.089 -0.991,-0.124c-3.218,-0.475 -3.523,-3.797 -3.523,-3.978c-0,-2.208 1.792,-4 4,-4c0.238,-0 0.472,0.02 0.698,0.064Z" style="fill:#fff;"/><path d="M142.744,35.533c0.994,0.246 1.893,0.871 2.463,1.816c1.14,1.891 0.531,4.351 -1.36,5.491l-4.331,5.199c-4.189,3.832 -9.337,5.149 -13.8,4.185c-4.621,-0.998 -8.708,-4.376 -10.396,-10.442c-0.45,-1.617 -0.823,-3.431 -0.91,-5.221c-0.069,-1.402 0.036,-2.792 0.364,-4.097c2.205,-8.778 10.681,-11.616 17.704,-9.508c4.434,1.33 8.3,4.547 9.524,9.346c0.383,0.981 0.639,2.058 0.742,3.231Z" style="fill:#fff;"/><path d="M237.173,94.177c-1.243,4.086 -4.587,6.764 -8.319,7.678c-4.957,1.215 -10.552,-0.676 -12.978,-6.348c-3.336,-7.798 0.5,-13.138 5.729,-15.492c6.144,-2.765 14.083,-0.644 15.886,5.732c0.899,3.181 0.652,6.045 -0.318,8.43Z" style="fill:#fff;"/><path d="M85.157,39.656l0.132,-2.072c0.102,-1.3 0.617,-2.041 0.693,-2.155l3.936,-5.106c0.874,-1.617 3.07,-3.725 5.94,-5.707c4.922,-3.399 11.813,-6.797 14.062,-7.612c2.728,-0.988 5.62,-1.861 8.506,-2.496c3.115,-0.686 6.226,-1.092 9.131,-1.092c8.584,-0 16.721,1.839 23.804,4.873c8.365,3.584 15.257,8.842 19.763,14.681c1.349,1.747 1.025,4.261 -0.723,5.61c-1.747,1.349 -4.261,1.025 -5.61,-0.723c-3.769,-4.883 -9.583,-9.217 -16.58,-12.214c-6.146,-2.633 -13.206,-4.227 -20.654,-4.227c-2.359,-0 -4.882,0.348 -7.411,0.905c-2.545,0.56 -5.095,1.333 -7.501,2.205c-1.48,0.536 -5.252,2.385 -8.861,4.524c-2.989,1.772 -6.012,3.567 -6.829,5.078l-3.744,4.979c-0.031,0.507 -0.069,1.093 -0.094,1.357c-0.321,3.412 -3.742,3.862 -4.021,3.862c-2.208,-0 -4,-1.793 -4,-4c-0,-0.229 0.019,-0.453 0.061,-0.67Z" style="fill:#fff;"/><path d="M88.081,41.457c1.169,1.92 3.235,3.96 5.582,5.769c3.492,2.693 7.562,4.919 9.278,5.664c4.352,1.89 9.14,3.78 13.863,5.11c3.486,0.981 6.941,1.656 10.181,1.841c3.218,0.184 7.655,-0.206 11.94,-1.008c4.628,-0.867 9.068,-2.235 11.732,-3.747c4.805,-2.726 8.612,-4.187 12.645,-7.621c2.943,-2.507 6.018,-6.032 9.59,-11.836c1.157,-1.88 0.57,-4.346 -1.31,-5.503c-1.88,-1.157 -4.346,-0.57 -5.503,1.31c-2.987,4.852 -5.504,7.842 -7.965,9.938c-3.62,3.084 -7.091,4.307 -11.405,6.755c-2.095,1.188 -5.618,2.159 -9.256,2.841c-3.594,0.673 -7.313,1.039 -10.012,0.884c-2.696,-0.154 -5.568,-0.738 -8.469,-1.555c-4.378,-1.232 -8.811,-2.996 -12.845,-4.747c-1.212,-0.526 -3.844,-1.976 -6.38,-3.776c-1.947,-1.381 -3.891,-2.932 -4.833,-4.48c-1.149,-1.886 -3.612,-2.484 -5.497,-1.336c-1.886,1.148 -2.484,3.612 -1.336,5.497Z" style="fill:#fff;"/><path d="M20.489,85.176c7.394,5.018 17.36,8.855 27.632,10.903c10.423,2.078 21.148,2.306 29.806,0.221c2.866,-0.69 5.624,-1.775 8.32,-3.058c3.661,-1.742 7.205,-3.858 10.782,-5.699c1.963,-1.011 2.737,-3.424 1.727,-5.387c-1.011,-1.963 -3.424,-2.737 -5.387,-1.727c-3.505,1.804 -6.973,3.882 -10.56,5.589c-2.191,1.043 -4.426,1.944 -6.755,2.505c-7.66,1.844 -17.147,1.549 -26.368,-0.29c-9.176,-1.829 -18.1,-5.195 -24.704,-9.677c-1.827,-1.24 -4.317,-0.763 -5.556,1.064c-1.24,1.827 -0.763,4.316 1.063,5.556Z" style="fill:#fff;"/><path d="M47.519,101.433c-0.213,2.006 -1.913,3.571 -3.976,3.571c-2.207,-0 -4,-1.793 -4,-4c0,-0.825 0.18,-1.683 0.537,-2.549c0.408,-0.986 1.472,-1.971 1.664,-2.973c0.415,-2.168 2.513,-3.591 4.681,-3.176c2.168,0.416 3.591,2.514 3.176,4.682c-0.256,1.332 -1.795,3.963 -2.082,4.445Z" style="fill:#fff;"/><path d="M57.712,100.269l0.791,4.505c-0,2.208 1.792,4 4,4c2.207,-0 4,-1.792 4,-4l-0.9,-5.82c-0.363,-2.177 -2.425,-3.651 -4.603,-3.288c-2.178,0.363 -3.651,2.426 -3.288,4.603Z" style="fill:#fff;"/><path d="M73.177,97.692c-0,0.729 0.131,1.523 0.394,2.344c0.432,1.348 1.459,2.878 1.794,4.067c0.599,2.124 2.811,3.363 4.936,2.763c2.125,-0.6 3.363,-2.811 2.763,-4.936l-1.887,-4.238c-0,-2.207 -1.793,-4 -4,-4c-2.208,0 -4,1.793 -4,4Z" style="fill:#fff;"/><path d="M31.819,90.633c-1.204,1.492 -2.657,3.126 -3.735,4.849c-0.615,0.982 -1.119,1.995 -1.463,3.025c-0.699,2.094 0.434,4.361 2.528,5.06c2.094,0.699 4.362,-0.433 5.061,-2.527c0.211,-0.633 0.583,-1.235 0.995,-1.827c0.874,-1.26 1.944,-2.446 2.839,-3.555c1.387,-1.718 1.118,-4.238 -0.6,-5.625c-1.718,-1.386 -4.238,-1.117 -5.625,0.6Z" style="fill:#fff;"/><path d="M238.294,89.481c-0.338,-3.155 -0.574,-5.658 -1.709,-7.871c-1.108,-2.161 -2.974,-4.178 -6.729,-6.028c-4.697,-2.313 -9.695,-3.168 -14.557,-3.166c-8.031,0.005 -15.655,2.396 -20.51,3.834c-1.363,0.404 -3.889,1.251 -6.17,2.113c-1.753,0.663 -3.368,1.345 -4.309,1.855l-7.402,4.59l-5.159,4.841c-1.708,1.399 -1.959,3.921 -0.56,5.629c1.399,1.708 3.921,1.959 5.629,0.561l4.755,-4.533l6.547,-4.054l8.942,-3.331c4.322,-1.281 11.092,-3.501 18.242,-3.505c3.676,-0.002 7.466,0.594 11.017,2.343c1.67,0.823 2.652,1.539 3.145,2.5c0.725,1.415 0.658,3.057 0.874,5.073c0.235,2.196 2.208,3.787 4.403,3.552c2.195,-0.235 3.786,-2.208 3.551,-4.403Z" style="fill:#fff;"/><path d="M92.441,169.985c0.023,0.149 0.035,0.302 0.039,0.457c0.053,2.207 -1.696,4.041 -3.903,4.094c-1.363,0.033 -3.977,-0.641 -4.173,-3.964c-0.038,-0.632 0.233,-2.277 0.256,-2.614c0.116,-1.661 0.083,-3.367 0.254,-5.045c0.09,-0.894 0.232,-1.781 0.453,-2.654c1.034,-4.096 1.925,-8.242 2.751,-12.405c1.255,-6.332 2.358,-12.706 3.566,-19.013c0.416,-2.168 2.513,-3.591 4.681,-3.176c2.169,0.415 3.592,2.513 3.176,4.681c-1.211,6.324 -2.317,12.715 -3.576,19.064c-0.852,4.298 -1.774,8.578 -2.842,12.807l-0.482,6.297c-0.011,0.162 -0.131,0.995 -0.2,1.471Z" style="fill:#fff;"/><path d="M161.53,130.903l3.007,15.053l1.927,9.672l2.372,12.427c0.364,2.177 2.427,3.649 4.604,3.285c2.178,-0.364 3.65,-2.427 3.286,-4.605l-2.382,-12.485l-1.958,-9.84l-2.947,-14.709c-0.332,-2.182 -2.373,-3.685 -4.555,-3.353c-2.183,0.331 -3.686,2.372 -3.354,4.555Z" style="fill:#fff;"/><path d="M88.394,154.471c2.583,0 5.184,-0.382 7.783,-0.985c5.238,-1.215 10.478,-3.389 15.562,-4.584l23.988,-6.624l10.923,-2.123l19.586,-6.76c2.098,-0.687 3.243,-2.948 2.556,-5.046c-0.687,-2.098 -2.948,-3.244 -5.046,-2.557l-19.602,6.765l-10.093,1.899l-24.143,6.658c-5.077,1.194 -10.309,3.366 -15.539,4.579c-1.997,0.463 -3.991,0.778 -5.975,0.778c-2.207,0 -4,1.793 -4,4c0,2.208 1.793,4 4,4Z" style="fill:#fff;"/><path d="M96.311,125.658l1.297,0.183l4.705,0.829l11.587,3.326l12.175,4.55c4.771,1.234 9.618,1.987 14.403,3.068c2.177,0.492 4.342,1.049 6.484,1.734c4.698,1.503 9.333,3.225 14.011,4.629c2.995,0.899 6.008,1.666 9.071,2.134c2.183,0.334 3.683,2.377 3.349,4.559c-0.333,2.182 -2.376,3.683 -4.559,3.349c-3.43,-0.524 -6.806,-1.373 -10.161,-2.38c-4.723,-1.417 -9.405,-3.154 -14.149,-4.671c-1.919,-0.614 -3.859,-1.11 -5.81,-1.551c-4.865,-1.099 -9.791,-1.871 -14.643,-3.126l-12.455,-4.628l-11.229,-3.228l-4.585,-0.801c0.018,0.004 0.325,0.062 0.325,0.062c0,-0 -0.753,-0.089 -0.991,-0.124c-3.218,-0.475 -3.523,-3.797 -3.523,-3.978c-0,-2.208 1.792,-4 4,-4c0.238,-0 0.472,0.02 0.698,0.064Z" style="fill:#fff;"/><path d="M142.744,35.533c0.994,0.246 1.893,0.871 2.463,1.816c1.14,1.891 0.531,4.351 -1.36,5.491l-4.331,5.199c-4.189,3.832 -9.337,5.149 -13.8,4.185c-4.621,-0.998 -8.708,-4.376 -10.396,-10.442c-0.45,-1.617 -0.823,-3.431 -0.91,-5.221c-0.069,-1.402 0.036,-2.792 0.364,-4.097c2.205,-8.778 10.681,-11.616 17.704,-9.508c4.434,1.33 8.3,4.547 9.524,9.346c0.383,0.981 0.639,2.058 0.742,3.231Z" style="fill:#fff;"/><path d="M237.173,94.177c-1.243,4.086 -4.587,6.764 -8.319,7.678c-4.957,1.215 -10.552,-0.676 -12.978,-6.348c-3.336,-7.798 0.5,-13.138 5.729,-15.492c6.144,-2.765 14.083,-0.644 15.886,5.732c0.899,3.181 0.652,6.045 -0.318,8.43Z" style="fill:#fff;"/><path d="M85.157,39.656l0.132,-2.072c0.102,-1.3 0.617,-2.041 0.693,-2.155l3.936,-5.106c0.874,-1.617 3.07,-3.725 5.94,-5.707c4.922,-3.399 11.813,-6.797 14.062,-7.612c2.728,-0.988 5.62,-1.861 8.506,-2.496c3.115,-0.686 6.226,-1.092 9.131,-1.092c8.584,-0 16.721,1.839 23.804,4.873c8.365,3.584 15.257,8.842 19.763,14.681c1.349,1.747 1.025,4.261 -0.723,5.61c-1.747,1.349 -4.261,1.025 -5.61,-0.723c-3.769,-4.883 -9.583,-9.217 -16.58,-12.214c-6.146,-2.633 -13.206,-4.227 -20.654,-4.227c-2.359,-0 -4.882,0.348 -7.411,0.905c-2.545,0.56 -5.095,1.333 -7.501,2.205c-1.48,0.536 -5.252,2.385 -8.861,4.524c-2.989,1.772 -6.012,3.567 -6.829,5.078l-3.744,4.979c-0.031,0.507 -0.069,1.093 -0.094,1.357c-0.321,3.412 -3.742,3.862 -4.021,3.862c-2.208,-0 -4,-1.793 -4,-4c-0,-0.229 0.019,-0.453 0.061,-0.67Z" style="fill:#fff;"/><path d="M88.081,41.457c1.169,1.92 3.235,3.96 5.582,5.769c3.492,2.693 7.562,4.919 9.278,5.664c4.352,1.89 9.14,3.78 13.863,5.11c3.486,0.981 6.941,1.656 10.181,1.841c3.218,0.184 7.655,-0.206 11.94,-1.008c4.628,-0.867 9.068,-2.235 11.732,-3.747c4.805,-2.726 8.612,-4.187 12.645,-7.621c2.943,-2.507 6.018,-6.032 9.59,-11.836c1.157,-1.88 0.57,-4.346 -1.31,-5.503c-1.88,-1.157 -4.346,-0.57 -5.503,1.31c-2.987,4.852 -5.504,7.842 -7.965,9.938c-3.62,3.084 -7.091,4.307 -11.405,6.755c-2.095,1.188 -5.618,2.159 -9.256,2.841c-3.594,0.673 -7.313,1.039 -10.012,0.884c-2.696,-0.154 -5.568,-0.738 -8.469,-1.555c-4.378,-1.232 -8.811,-2.996 -12.845,-4.747c-1.212,-0.526 -3.844,-1.976 -6.38,-3.776c-1.947,-1.381 -3.891,-2.932 -4.833,-4.48c-1.149,-1.886 -3.612,-2.484 -5.497,-1.336c-1.886,1.148 -2.484,3.612 -1.336,5.497Z" style="fill:#fff;"/></svg>